# xmcd
#
# Track frame offsets:
#	150
#	14652
#	27943
#	41658
#	56461
#	73764
#	89926
#	106263
#	127281
#	144770
#	164007
#
# Disc length: 2343 seconds
#
# Revision: 1
# Processed by: cddbd v1.5.2PL0 Copyright (c) Steve Scherf et al.
# Submitted via: audiograbber 1.83.01
#
DISCID=a309250b
DTITLE=Felicity Urquhart - Frozen Rabbit
DYEAR=2019
DGENRE=Country
TTITLE0=New Harmony
TTITLE1=Chain Of Joy
TTITLE2=Frozen Rabbit
TTITLE3=Where The Fruit Hangs Low (feat. Shanley Del)
TTITLE4=Cartwheel And Climb
TTITLE5=Bon Bons
TTITLE6=Hopscotch Sunday
TTITLE7=Speck Of Dust
TTITLE8=Breaking Your Heart Again
TTITLE9=Slow It Down (Feat. Karl Brodie)
TTITLE10=Strawberry Footprints
EXTD=
EXTT0=
EXTT1=
EXTT2=
EXTT3=
EXTT4=
EXTT5=
EXTT6=
EXTT7=
EXTT8=
EXTT9=
EXTT10=
PLAYORDER=
